<svg xmlns="http://www.w3.org/2000/svg" width="42.087" height="42.088" viewBox="0 0 42.087 42.088"><g transform="translate(-1293 -898)"><rect width="42.087" height="42.088" rx="5" transform="translate(1293 898)" fill="#fff"/><g transform="translate(1297.328 902.328)"><g transform="translate(0 0)" fill="#f8da26"><path d="M 17.00008964538574 20.77196311950684 C 11.26990795135498 20.77196311950684 5.768965721130371 20.2240047454834 0.6438164114952087 19.14307022094727 C 0.5483189821243286 18.42292976379395 0.5 17.69024658203125 0.5 16.96010208129883 C 0.5 12.56370258331299 2.216170072555542 8.430362701416016 5.332369804382324 5.321492671966553 C 8.44888973236084 2.212312459945679 12.59255981445312 0.5000025033950806 17.00008964538574 0.5000025033950806 C 21.40760040283203 0.5000025033950806 25.55124092102051 2.212302446365356 28.66770935058594 5.321492671966553 C 31.78385925292969 8.430352210998535 33.5 12.56369209289551 33.5 16.96010208129883 C 33.5 17.69020462036133 33.45167922973633 18.42291069030762 33.35618209838867 19.14310073852539 C 28.23113822937012 20.2240161895752 22.73027229309082 20.77196311950684 17.00008964538574 20.77196311950684 Z" stroke="none"/><path d="M 17.00008964538574 20.27196311950684 C 22.56553077697754 20.27196311950684 27.91155052185059 19.75230598449707 32.90306091308594 18.72672271728516 C 32.96747207641602 18.14179992675781 33 17.55009841918945 33 16.96010208129883 C 33 12.69747257232666 31.33601951599121 8.689842224121094 28.3145694732666 5.67546272277832 C 25.29249000549316 2.660442590713501 21.27426910400391 1.000002503395081 17.00008964538574 1.000002503395081 C 12.7258996963501 1.000002503395081 8.707630157470703 2.660442590713501 5.685510158538818 5.67546272277832 C 2.664010047912598 8.689852714538574 1 12.69748210906982 1 16.96010208129883 C 1 17.55012702941895 1.032524347305298 18.14179420471191 1.096932530403137 18.7266902923584 C 6.088541984558105 19.75229263305664 11.43463897705078 20.27196311950684 17.00008964538574 20.27196311950684 M 17.00008964538574 21.27196311950684 C 10.97389984130859 21.27196311950684 5.271289825439453 20.65607261657715 0.198390007019043 19.55922317504883 C 0.0677499994635582 18.71185302734375 0 17.84395217895508 0 16.96010208129883 C 0 7.593362331390381 7.611259937286377 2.513427716621663e-06 17.00008964538574 2.513427716621663e-06 C 26.3889102935791 2.513427716621663e-06 34 7.593362331390381 34 16.96010208129883 C 34 17.84395217895508 33.9322395324707 18.71188163757324 33.80160903930664 19.55925178527832 C 28.72872924804688 20.65610313415527 23.02626991271973 21.27196311950684 17.00008964538574 21.27196311950684 Z" stroke="none" fill="#0c0200"/></g><path d="M16.573,13.162a16.991,16.991,0,0,1-5.755-1A16.947,16.947,0,0,1,5.9,9.408,17.019,17.019,0,0,1,2.183,5.237,16.807,16.807,0,0,1,0,0,74.839,74.839,0,0,0,7.941,1.232a85.529,85.529,0,0,0,8.632.432A85.53,85.53,0,0,0,25.2,1.232,74.838,74.838,0,0,0,33.146,0a16.807,16.807,0,0,1-2.183,5.237,17.019,17.019,0,0,1-3.722,4.171,16.947,16.947,0,0,1-4.913,2.758A16.991,16.991,0,0,1,16.573,13.162Z" transform="translate(0.427 20.839)" fill="#32362d" opacity="0"/><ellipse cx="5.174" cy="5.174" rx="5.174" ry="5.174" transform="translate(12.114 7.884)" fill="#32362d"/><g transform="translate(11.539 7.308)"><path d="M9.531,1.447,9.1,1.1l-.686.489-.63-.345L7.831.4,7.307.222l-.478.7L6.121.807,5.874,0,5.322.011,5.11.829l-.7.139L3.9.3l-.515.2.079.84L2.851,1.7l-.708-.46-.415.364.362.765-.45.56L.819,2.741l-.266.481.6.592L.922,4.5l-.838.1L0,5.142l.765.351L.78,6.21l-.753.383.107.542L.976,7.2l.259.67-.574.617.287.472.814-.224.471.544-.331.777.43.346.688-.49.628.346L3.6,11.1l.522.178.478-.695.709.11.247.807.551-.011.212-.817.7-.14.508.675L8.05,11l-.08-.841.614-.371.708.46.415-.364-.362-.765.449-.559.822.191.266-.478-.6-.593L10.512,7l.908-.11.078-.508L10.666,6l-.014-.718L11.4,4.9,11.3,4.361l-.841-.068-.259-.67.574-.617-.287-.473-.813.225L9.2,2.218ZM7.866,2.611,6.448,4.374a1.556,1.556,0,0,0-1.74.191L2.946,3.145a3.8,3.8,0,0,1,4.92-.534ZM6.28,6.2a.723.723,0,1,1-.11-1.017A.723.723,0,0,1,6.28,6.2Zm-3.7-2.6,1.76,1.419a1.56,1.56,0,0,0,.191,1.74L3.113,8.522A3.806,3.806,0,0,1,2.582,3.6Zm.986,5.288L4.985,7.125a1.559,1.559,0,0,0,1.741-.191L8.488,8.354A3.8,3.8,0,0,1,3.568,8.887ZM8.854,7.9,7.091,6.481A1.558,1.558,0,0,0,6.9,4.741L8.32,2.977A3.806,3.806,0,0,1,8.854,7.9Z" fill="#0c0200"/><circle cx="4.503" cy="4.503" r="4.503" transform="translate(1.341 1.341)" fill="#0c0200"/><path d="M4.36,8.719A4.36,4.36,0,0,1,2.663.343a4.366,4.366,0,0,1,5.714,2.32l.007.018-.8,0A3.633,3.633,0,1,0,7.9,5.2a.128.128,0,0,0-.035-.079.12.12,0,0,0-.085-.035H6.125A.12.12,0,0,0,6,5.207V6.419a.364.364,0,0,1-.727,0V5.175a.128.128,0,0,0-.031-.053.123.123,0,0,0-.086-.035h-1.7a.121.121,0,0,0-.121.121l0,1.211a.363.363,0,0,1-.726,0V2.3a.363.363,0,1,1,.726,0V3.512a.127.127,0,0,0,.036.086.12.12,0,0,0,.086.035h1.7A.125.125,0,0,0,5.243,3.6a.12.12,0,0,0,.035-.086V2.3A.364.364,0,1,1,6,2.3V3.512A.12.12,0,0,0,6.04,3.6a.117.117,0,0,0,.085.036H8.388a.406.406,0,0,1,.19.062.377.377,0,0,1,.112.165,4.491,4.491,0,0,1,.028.5,4.354,4.354,0,0,1-4.36,4.36Zm3.708-5.8H8.043a.475.475,0,0,1-.457-.233h.8a.162.162,0,0,1-.027.129A.359.359,0,0,1,8.068,2.916Z" transform="translate(1.341 1.341)" fill="#fff"/></g><g transform="translate(0.383 20.839)" fill="#fff8d0"><path d="M 16.57304382324219 12.66170120239258 C 14.65445423126221 12.66170120239258 12.77488422393799 12.33630180358887 10.98655414581299 11.69453144073486 C 9.711014747619629 11.23678684234619 8.4947509765625 10.62197303771973 7.370745182037354 9.866847991943359 C 6.906725883483887 9.374907493591309 6.480354309082031 8.843231201171875 6.10283374786377 8.285761833190918 C 5.649003982543945 7.615701675415039 5.259393692016602 6.899641513824463 4.94481372833252 6.157461643218994 C 4.289893627166748 4.61281156539917 3.957833766937256 2.971851587295532 3.957833766937256 1.28011155128479 C 3.957833766937256 1.263025760650635 3.957869291305542 1.245938658714294 3.957938194274902 1.228823661804199 C 5.247903823852539 1.426311492919922 6.568102359771729 1.594216227531433 7.890783786773682 1.728901505470276 C 10.7214937210083 2.01729154586792 13.64263343811035 2.163521528244019 16.57304382324219 2.163521528244019 C 19.50358390808105 2.163521528244019 22.42478370666504 2.01729154586792 25.25551414489746 1.728901505470276 C 26.54240798950195 1.597816228866577 27.8273868560791 1.435274243354797 29.08361434936523 1.244747281074524 C 29.08364677429199 1.256541609764099 29.08366394042969 1.268332004547119 29.08366394042969 1.28011155128479 C 29.08366394042969 2.972131490707397 28.75166320800781 4.613081455230713 28.09687423706055 6.157401561737061 C 27.78213310241699 6.899571418762207 27.39250373840332 7.615681648254395 26.93881416320801 8.285811424255371 C 26.5124340057373 8.915392875671387 26.02543449401855 9.510029792785645 25.49087333679199 10.05384159088135 C 24.44816207885742 10.72350311279297 23.32770538330078 11.27535152435303 22.15955352783203 11.6945219039917 C 20.37136459350586 12.33630180358887 18.4918041229248 12.66170120239258 16.57304382324219 12.66170120239258 Z M 30.57133674621582 4.921127319335938 C 31.0380859375 3.612827301025391 31.3161678314209 2.250337839126587 31.40073204040527 0.8557958602905273 C 31.75711250305176 0.7900606989860535 32.11232757568359 0.7217405438423157 32.4643440246582 0.6512311100959778 C 32.04219436645508 2.155902147293091 31.4072093963623 3.588769435882568 30.57133674621582 4.921127319335938 Z M 2.336814641952515 4.529960155487061 C 1.617679834365845 3.309979438781738 1.062980651855469 2.009838104248047 0.6817653775215149 0.6512260437011719 C 0.9990169405937195 0.7147725224494934 1.318930745124817 0.7765582799911499 1.639608383178711 0.8362101316452026 C 1.71452271938324 2.099027156829834 1.948106169700623 3.335601806640625 2.336814641952515 4.529960155487061 Z" stroke="none"/><path d="M 16.57304382324219 12.16170120239258 C 18.43406295776367 12.16170120239258 20.25680351257324 11.84619140625 21.99068450927734 11.22390174865723 C 23.10564804077148 10.82380867004395 24.17585754394531 10.29904365539551 25.17336845397949 9.66340446472168 C 25.67142105102539 9.152008056640625 26.12578201293945 8.594643592834473 26.5247745513916 8.005491256713867 C 26.96036338806152 7.362111568450928 27.33442306518555 6.674641609191895 27.63654327392578 5.962221622467041 C 28.19438552856445 4.646543502807617 28.50814056396484 3.257514715194702 28.57160568237305 1.8257976770401 C 27.49538993835449 1.980541944503784 26.40135955810547 2.114774465560913 25.30619430541992 2.226321458816528 C 22.45869445800781 2.516421556472778 19.52044296264648 2.663521528244019 16.57304382324219 2.663521528244019 C 13.62577342987061 2.663521528244019 10.68758392333984 2.516421556472778 7.840133666992188 2.226331472396851 C 6.709041595458984 2.111152648925781 5.579720497131348 1.971830487251282 4.469232082366943 1.810597538948059 C 4.531171798706055 3.24744176864624 4.845232486724854 4.641692161560059 5.405173778533936 5.962331771850586 C 5.707123756408691 6.674731731414795 6.081133842468262 7.362101554870605 6.516833782196045 8.005391120910645 C 6.868949890136719 8.525347709655762 7.26538610458374 9.021998405456543 7.696220874786377 9.483033180236816 C 8.773036003112793 10.20095443725586 9.936269760131836 10.78639507293701 11.15543365478516 11.22391128540039 C 12.88943386077881 11.84618186950684 14.71217346191406 12.16170120239258 16.57304382324219 12.16170120239258 M 16.57304382324219 13.16170120239258 C 14.59673404693604 13.16170120239258 12.66033363342285 12.82641124725342 10.81766414642334 12.16514110565186 C 9.485794067382812 11.68718147277832 8.216683387756348 11.04305171966553 7.045593738555908 10.25065135955811 C 6.548243999481201 9.72788143157959 6.091784000396729 9.161141395568848 5.688833713531494 8.566121101379395 C 5.216873645782471 7.86929178237915 4.811663627624512 7.124541759490967 4.484463691711426 6.35258150100708 C 3.80324387550354 4.745911598205566 3.457833766937256 3.039281606674194 3.457833766937256 1.28011155128479 C 3.457833766937256 1.069441556930542 3.462893724441528 0.856281578540802 3.472883939743042 0.6465515494346619 C 4.930243968963623 0.8810815811157227 6.433603763580322 1.077931523323059 7.941433906555176 1.231471538543701 C 10.7554235458374 1.518161535263062 13.65951347351074 1.663521528244019 16.57304382324219 1.663521528244019 C 19.48670387268066 1.663521528244019 22.39085388183594 1.518161535263062 25.204833984375 1.231471538543701 C 26.67594337463379 1.081631541252136 28.1444034576416 0.8904215693473816 29.56941413879395 0.6631715297698975 C 29.57894325256348 0.8689315319061279 29.58366394042969 1.076431512832642 29.58366394042969 1.28011155128479 C 29.58366394042969 3.03956151008606 29.23831367492676 4.746181488037109 28.55720329284668 6.35258150100708 C 28.22983360290527 7.124541759490967 27.82462310791016 7.869281768798828 27.35284423828125 8.566121101379395 C 26.89903450012207 9.236211776733398 26.3792839050293 9.868121147155762 25.80801391601562 10.44429111480713 C 24.72028350830078 11.14797115325928 23.54959297180176 11.72694110870361 22.32843399047852 12.16514110565186 C 20.48592376708984 12.82641124725342 18.54953384399414 13.16170120239258 16.57304382324219 13.16170120239258 Z M 27.64774322509766 9.070231437683105 L 27.64747428894043 9.069961547851562 C 27.93780326843262 8.718331336975098 28.21380424499512 8.349831581115723 28.46782302856445 7.974701404571533 C 28.98820304870605 7.206371784210205 29.43510437011719 6.38491153717041 29.79614448547363 5.533151626586914 C 30.4824333190918 3.91465163230896 30.8605842590332 2.199361562728882 30.92006301879883 0.4349015653133392 C 31.66876411437988 0.3011215627193451 32.41765213012695 0.1548615545034409 33.14608383178711 1.55487055053527e-06 C 32.71993255615234 1.858181595802307 31.98552322387695 3.619981527328491 30.96350288391113 5.236671447753906 C 30.05502319335938 6.673711776733398 28.93944358825684 7.96351146697998 27.64774322509766 9.070231437683105 Z M 5.141003608703613 8.755191802978516 C 4.000913619995117 7.722031593322754 3.005563735961914 6.538231372833252 2.182583808898926 5.236671447753906 C 1.160583853721619 3.620111465454102 0.4262638092041016 1.858241558074951 3.823241968348157e-06 1.55487055053527e-06 C 0.6905538439750671 0.14679154753685 1.404023766517639 0.2868315577507019 2.120823860168457 0.4160215556621552 C 2.178223848342896 2.186701536178589 2.556513786315918 3.908291578292847 3.245353937149048 5.533151626586914 C 3.606543779373169 6.384881496429443 4.053463935852051 7.206341743469238 4.573673725128174 7.974701404571533 C 4.752793788909912 8.239131927490234 4.943763732910156 8.501641273498535 5.141283988952637 8.754931449890137 L 5.141003608703613 8.755191802978516 Z" stroke="none" fill="#0c0200"/></g></g></g></svg>