<svg xmlns="http://www.w3.org/2000/svg" width="177" height="177" viewBox="0 0 177 177"><g transform="translate(-1280 -219)"><path d="M112.032,168.063a88.5,88.5,0,1,1,174.935,0A416.31,416.31,0,0,1,199.5,177,416.319,416.319,0,0,1,112.032,168.063Z" transform="translate(1169 153)" fill="#ffe200"/><path d="M199.5,237a88.526,88.526,0,0,1-86.273-68.68,388.706,388.706,0,0,0,41.339,6.426A444.16,444.16,0,0,0,199.5,177a444.165,444.165,0,0,0,44.933-2.254,388.7,388.7,0,0,0,41.339-6.426,87.818,87.818,0,0,1-11.361,27.326A88.347,88.347,0,0,1,199.5,237Z" transform="translate(1169 159)" fill="#32362d" opacity="0"/><circle cx="27" cy="27" r="27" transform="translate(1343 260)" fill="#32362d"/><g transform="translate(-181 -40)"><path d="M49.735,7.549,47.494,5.741,43.916,8.293l-3.289-1.8.235-4.4-2.73-.934-2.5,3.63-3.7-.574L30.651,0,27.772.06,26.664,4.324l-3.673.724L20.346,1.553,17.661,2.571l.414,4.383-3.2,1.937-3.693-2.4-2.166,1.9,1.891,3.994L8.559,15.3l-4.287-1L2.884,16.815l3.134,3.09-1.208,3.56-4.372.5L0,26.83l3.992,1.832.08,3.744-3.927,2L.7,37.229l4.392.349,1.352,3.495-2.994,3.22,1.5,2.461L9.2,45.587l2.455,2.841L9.926,52.481l2.246,1.807,3.588-2.556,3.279,1.807L18.8,57.913l2.725.929,2.5-3.625,3.7.574L29.009,60l2.874-.055,1.108-4.264,3.673-.729,2.65,3.52L42,57.414l-.419-4.388,3.2-1.937,3.693,2.4,2.166-1.9L48.757,47.6,51.1,44.683l4.292,1,1.387-2.5-3.134-3.1,1.208-3.545,4.736-.574L60,33.32l-4.342-2-.075-3.744,3.922-2-.559-2.826L54.56,22.4l-1.352-3.495,2.994-3.22-1.5-2.466-4.242,1.173L48,11.573Zm-8.688,6.076-7.4,9.2a8.122,8.122,0,0,0-9.078,1l-9.2-7.414a19.841,19.841,0,0,1,25.676-2.786ZM32.772,32.366a3.773,3.773,0,1,1-.574-5.307A3.772,3.772,0,0,1,32.772,32.366Zm-19.3-13.585,9.182,7.4a8.141,8.141,0,0,0,1,9.081l-7.411,9.2a19.861,19.861,0,0,1-2.77-25.686Zm5.145,27.594,7.4-9.2a8.137,8.137,0,0,0,9.083-1l9.192,7.414A19.831,19.831,0,0,1,18.619,46.375ZM46.2,41.218l-9.2-7.4a8.13,8.13,0,0,0-1-9.081l7.411-9.2A19.861,19.861,0,0,1,46.2,41.218Z" transform="translate(1521 297)" fill="#32362d"/><circle cx="23.5" cy="23.5" r="23.5" transform="translate(1528 304)" fill="#32362d"/></g><path d="M22.75,45.5A22.756,22.756,0,0,1,13.894,1.788,22.776,22.776,0,0,1,43.712,13.894c.012.027.023.055.034.082l.01.024h-.005a.848.848,0,0,1-.142.673,1.87,1.87,0,0,1-1.506.542l-.131,0A2.475,2.475,0,0,1,39.585,14h-.005A18.948,18.948,0,1,0,41.2,27.139a.632.632,0,0,0-.631-.6l-8.606,0a.635.635,0,0,0-.631.633v6.319a1.9,1.9,0,1,1-3.791,0V27.012a.636.636,0,0,0-.61-.469H18.188v.011a.694.694,0,0,0-.107-.009.633.633,0,0,0-.632.631H17.43v6.318a1.9,1.9,0,0,1-3.792,0V12.007a1.9,1.9,0,0,1,3.792,0v6.321a.631.631,0,0,0,.185.445.624.624,0,0,0,.446.185H26.91a.631.631,0,0,0,.631-.631V12.007a1.9,1.9,0,0,1,3.791,0v6.321a.638.638,0,0,0,.185.445.629.629,0,0,0,.447.185H43.75a2.137,2.137,0,0,1,1.017.326,1.976,1.976,0,0,1,.586.856,23.156,23.156,0,0,1,.148,2.61A22.733,22.733,0,0,1,22.75,45.5Z" transform="translate(1347 264)" fill="#fff"/><path d="M86.272,144a88.108,88.108,0,0,1-49.6-15.19,68.081,68.081,0,0,1-13.332-20.341A67.574,67.574,0,0,1,18,82c0-1.1.026-2.212.078-3.306,7.586,1.224,15.412,2.251,23.261,3.052A444.1,444.1,0,0,0,86.272,84a444.112,444.112,0,0,0,44.933-2.254c7.658-.782,15.3-1.78,22.72-2.965.05,1.074.074,2.156.074,3.219a67.679,67.679,0,0,1-11.613,38.02,68.51,68.51,0,0,1-8.042,9.8A88.115,88.115,0,0,1,86.272,144Zm57.65-21.35h0c1.511-1.835,2.948-3.758,4.27-5.715a74.634,74.634,0,0,0,12.765-39.344c3.9-.7,7.8-1.461,11.588-2.269a87.826,87.826,0,0,1-11.362,27.326A88.758,88.758,0,0,1,143.922,122.65ZM26.762,121.006a88.83,88.83,0,0,1-15.4-18.36A87.832,87.832,0,0,1,0,75.32c3.595.766,7.309,1.5,11.04,2.171a74.635,74.635,0,0,0,12.768,39.442c.932,1.38,1.927,2.75,2.955,4.071Z" transform="translate(1282 252)" fill="#fffce5"/></g></svg>