<svg xmlns="http://www.w3.org/2000/svg" width="25.998" height="26" viewBox="0 0 25.998 26">
  <path id="路径_70" data-name="路径 70" d="M87.606,70.169H81.94L77.5,65.734a2.437,2.437,0,1,0-4.171.018l-4.42,4.417h-5.7a.812.812,0,0,0-.806.814V87.23a.816.816,0,0,0,.806.814H87.6a.813.813,0,0,0,.806-.814V70.983A.813.813,0,0,0,87.606,70.169Zm-13-3.388a2.435,2.435,0,0,0,1.643-.008l3.4,3.4H71.211Zm-8.939,8.263h8.125v1.625H65.662V75.044Zm13,8.125h-13V81.544h13v1.625Zm4.875-3.25H65.662V78.294H83.537v1.625Z" transform="translate(-62.412 -62.044)" fill="#fff"/>
</svg>
