<svg xmlns="http://www.w3.org/2000/svg" width="22.009" height="26" viewBox="0 0 22.009 26">
  <path id="路径_11" data-name="路径 11" d="M93.879,31.957c2.143-.04,2.991-2.084,3-4h-6C90.877,29.879,91.681,31.992,93.879,31.957Zm11-7.543c-.045-.857-.546-1.392-1.22-1.392-1.225,0-1.225-4.589-1.225-4.589V15.22c0-2.659-2.59-5.462-6.142-6.573a2.235,2.235,0,0,0,.03-.377,2.447,2.447,0,0,0-4.886,0,2.425,2.425,0,0,0,.03.382c-3.378,1.111-6.146,3.681-6.146,6.568V18.4s0,4.584-1.191,4.623a1.3,1.3,0,0,0-1.255,1.444c.015,1.637,1.329,1.493,2,1.493h18C104.071,25.917,104.935,25.523,104.877,24.415Z" transform="translate(-82.87 -5.958)" fill="#f7f7f7"/>
</svg>
