<svg xmlns="http://www.w3.org/2000/svg" width="26" height="24.407" viewBox="0 0 26 24.407">
  <path id="减去_2" data-name="减去 2" d="M-1923,24.407a.923.923,0,0,1-.657-.272l-3.336-3.335h-7.15A1.859,1.859,0,0,1-1936,18.943V1.857A1.859,1.859,0,0,1-1934.143,0h22.286A1.859,1.859,0,0,1-1910,1.857V18.943a1.859,1.859,0,0,1-1.858,1.857h-7.15l-3.336,3.335A.922.922,0,0,1-1923,24.407Zm.062-20.97a3.555,3.555,0,0,0-2.527,1.055,3.553,3.553,0,0,0-1.055,2.526,3.592,3.592,0,0,0,2.431,3.389,6.887,6.887,0,0,0-3.694,1.928,7.293,7.293,0,0,0-2.007,3.777.852.852,0,0,0,.157.715.876.876,0,0,0,.653.311h12.051a.877.877,0,0,0,.654-.311.776.776,0,0,0,.186-.715,7.154,7.154,0,0,0-3.456-4.883c-.06-.03-.111-.058-.165-.088l0,0a3.528,3.528,0,0,0-.453-.22,7.815,7.815,0,0,0-1.733-.475,3.619,3.619,0,0,0,2.543-3.425,3.553,3.553,0,0,0-1.055-2.526A3.553,3.553,0,0,0-1922.938,3.437Z" transform="translate(1936)" fill="#fff"/>
</svg>
