<svg xmlns="http://www.w3.org/2000/svg" width="19.51" height="26" viewBox="0 0 19.51 26">
  <path id="路径_71" data-name="路径 71" d="M137.755.512A9.753,9.753,0,0,0,128,10.241a9.644,9.644,0,0,0,1.353,4.929c.962,1.639,7.921,11.056,7.921,11.056a.538.538,0,0,0,.481.286.564.564,0,0,0,.481-.286s6.958-9.43,7.921-11.056a9.644,9.644,0,0,0,1.353-4.929A9.761,9.761,0,0,0,137.755.512Zm0,12.967a3.252,3.252,0,1,1,3.252-3.252A3.261,3.261,0,0,1,137.755,13.479Z" transform="translate(-128 -0.512)" fill="#fff"/>
</svg>
