<svg xmlns="http://www.w3.org/2000/svg" width="22.04" height="26" viewBox="0 0 22.04 26">
  <path id="减去_3" data-name="减去 3" d="M10.984,26a1.889,1.889,0,0,1-.3-.024,9.568,9.568,0,0,1-1.854-.584,12.579,12.579,0,0,1-1.719-.882A13.027,13.027,0,0,1,5.178,23.06a14.391,14.391,0,0,1-3.57-5.136A19.489,19.489,0,0,1,.442,13.974,27.4,27.4,0,0,1,0,8.928V4.869A1.625,1.625,0,0,1,.536,3.652a1.74,1.74,0,0,1,1.116-.406H2.59A15.9,15.9,0,0,0,5.975,2.88a9.721,9.721,0,0,0,4-2.547c.036-.034.057-.055.063-.059a1.754,1.754,0,0,1,1.883,0c.134.086.346.255.613.469A10.9,10.9,0,0,0,16.1,2.889a15.688,15.688,0,0,0,3.327.357h.958a1.732,1.732,0,0,1,1.114.406,1.625,1.625,0,0,1,.544,1.218V8.928a27.208,27.208,0,0,1-.444,5.046,19.386,19.386,0,0,1-1.175,3.949,14.391,14.391,0,0,1-3.595,5.136,13.113,13.113,0,0,1-1.947,1.451,12.7,12.7,0,0,1-1.73.882,9.731,9.731,0,0,1-1.866.584A1.889,1.889,0,0,1,10.984,26ZM7.192,8.97a.76.76,0,0,0-.761.761v7.356a2,2,0,0,0,.16.788,2.049,2.049,0,0,0,1.081,1.081,2,2,0,0,0,.788.16h3.7a2.026,2.026,0,0,0,1.446-.6l3.982-4.048c-.006-.006-.639-.624-.659-.634a.6.6,0,0,0-.4-.147.622.622,0,0,0-.3.081c-.019,0-1.963,1.119-2.184,1.247h0V8.97a.761.761,0,1,0-1.522,0v3.551h-.507V7.7a.761.761,0,1,0-1.522,0v4.819H9.982V8.209a.761.761,0,1,0-1.522,0v4.312H7.952V9.731a.76.76,0,0,0-.761-.761Z" transform="translate(0 0)" fill="#fff"/>
</svg>
