<svg xmlns="http://www.w3.org/2000/svg" width="26" height="22.235" viewBox="0 0 26 22.235">
  <path id="联合_4" data-name="联合 4" d="M-1931.978,21.911c-5.491-.653-3.874-2.5-3.551-3.58.432-2.6,5.92-3.9,7.429-5.095a1.7,1.7,0,0,0,.429-.653,1.958,1.958,0,0,0-.322-1.084s-2.692-1.734-2.692-6.182c.11-1.952,1.076-5.316,4.845-5.316h.216c3.661,0,4.738,3.473,4.844,5.316,0,4.664-2.688,6.185-2.688,6.185a1.257,1.257,0,0,0-.216.866c0,.106.106.653.322.759,1.506,1.191,7.1,2.5,7.317,5.2.325,1.409,2.9,3.905-9.688,3.905A45.811,45.811,0,0,1-1931.978,21.911ZM-1914,18.221c-.216-1.411-1.292-2.6-4.951-4.339.645.325-3.443-.759-2.26-2.6,3.12-2.495,2.369-6.4,1.722-8.462a3.578,3.578,0,0,1,1.617-.325h.216c2.9,0,3.767,2.712,3.874,4.23a5.606,5.606,0,0,1-2.153,4.989,1.905,1.905,0,0,0-.106.759,1.174,1.174,0,0,0,.216.653c1.29.977,5.382,1.955,5.7,4.123a3.531,3.531,0,0,1,0,1.84,13.588,13.588,0,0,1-3.552.977S-1913.786,19.306-1914,18.221Z" transform="translate(1936)" fill="#fff"/>
</svg>
